<svg width="32" height="32" viewBox="0 0 32 32" fill="none" xmlns="http://www.w3.org/2000/svg">
<g clip-path="url(#clip0_176_2026)">
<path d="M24.0002 8.00002H21.3335C21.3335 5.05335 18.9468 2.66669 16.0002 2.66669C13.0535 2.66669 10.6668 5.05335 10.6668 8.00002H8.00016C6.5335 8.00002 5.3335 9.20002 5.3335 10.6667V26.6667C5.3335 28.1334 6.5335 29.3334 8.00016 29.3334H24.0002C25.4668 29.3334 26.6668 28.1334 26.6668 26.6667V10.6667C26.6668 9.20002 25.4668 8.00002 24.0002 8.00002ZM13.3335 13.3334C13.3335 14.0667 12.7335 14.6667 12.0002 14.6667C11.2668 14.6667 10.6668 14.0667 10.6668 13.3334V10.6667H13.3335V13.3334ZM16.0002 5.33335C17.4668 5.33335 18.6668 6.53335 18.6668 8.00002H13.3335C13.3335 6.53335 14.5335 5.33335 16.0002 5.33335ZM21.3335 13.3334C21.3335 14.0667 20.7335 14.6667 20.0002 14.6667C19.2668 14.6667 18.6668 14.0667 18.6668 13.3334V10.6667H21.3335V13.3334Z" fill="#FBF9F1"/>
</g>
<defs>
<clipPath id="clip0_176_2026">
<rect width="32" height="32" fill="white"/>
</clipPath>
</defs>
</svg>
