<svg width="10" height="10" viewBox="0 0 10 10" fill="none" xmlns="http://www.w3.org/2000/svg">
<g clip-path="url(#clip0_148_2278)">
<path d="M4.94992 3.80837C5.48325 3.83337 5.62075 4.28754 5.62909 4.50004H6.37492C6.34159 3.67504 5.75409 3.17087 4.93742 3.17087C4.01659 3.17087 3.33325 3.75004 3.33325 5.05837C3.33325 5.86671 3.72075 6.82504 4.93325 6.82504C5.85825 6.82504 6.35409 6.13754 6.36659 5.59587H5.62075C5.60825 5.84171 5.43325 6.17087 4.94159 6.19587C4.39575 6.17921 4.16659 5.75421 4.16659 5.05837C4.16659 3.85421 4.69992 3.81671 4.94992 3.80837ZM4.99992 0.833374C2.69992 0.833374 0.833252 2.70004 0.833252 5.00004C0.833252 7.30004 2.69992 9.16671 4.99992 9.16671C7.29992 9.16671 9.16659 7.30004 9.16659 5.00004C9.16659 2.70004 7.29992 0.833374 4.99992 0.833374ZM4.99992 8.33337C3.16242 8.33337 1.66659 6.83754 1.66659 5.00004C1.66659 3.16254 3.16242 1.66671 4.99992 1.66671C6.83742 1.66671 8.33325 3.16254 8.33325 5.00004C8.33325 6.83754 6.83742 8.33337 4.99992 8.33337Z" fill="#603F26"/>
</g>
<defs>
<clipPath id="clip0_148_2278">
<rect width="10" height="10" fill="white"/>
</clipPath>
</defs>
</svg>
