<svg width="25" height="25" viewBox="0 0 25 25" fill="none" xmlns="http://www.w3.org/2000/svg">
<g clip-path="url(#clip0_2001_971)">
<path d="M19.1 7.12012C17.66 7.12012 16.3 7.68012 15.33 8.65012L12.5 11.1601L10.98 12.5001H10.99L8.3 14.8901C7.66 15.5301 6.81 15.8801 5.9 15.8801C4.03 15.8801 2.51 14.3701 2.51 12.5001C2.51 10.6301 4.03 9.12012 5.9 9.12012C6.81 9.12012 7.66 9.47012 8.34 10.1501L9.47 11.1501L10.98 9.81012L9.72 8.70012C8.7 7.68012 7.34 7.12012 5.9 7.12012C2.92 7.12012 0.5 9.54012 0.5 12.5001C0.5 15.4601 2.92 17.8801 5.9 17.8801C7.34 17.8801 8.7 17.3201 9.67 16.3501L12.5 13.8501L12.51 13.8601L14.02 12.5001H14.01L16.7 10.1101C17.34 9.47012 18.19 9.12012 19.1 9.12012C20.97 9.12012 22.49 10.6301 22.49 12.5001C22.49 14.3701 20.97 15.8801 19.1 15.8801C18.2 15.8801 17.34 15.5301 16.66 14.8501L15.52 13.8401L14.01 15.1801L15.28 16.3001C16.3 17.3101 17.65 17.8701 19.1 17.8701C22.08 17.8701 24.5 15.4601 24.5 12.4901C24.5 9.52012 22.08 7.12012 19.1 7.12012Z" fill="#FF9EAA"/>
</g>
<defs>
<clipPath id="clip0_2001_971">
<rect width="24" height="24" fill="white" transform="translate(0.5 0.5)"/>
</clipPath>
</defs>
</svg>
