<svg width="10" height="10" viewBox="0 0 10 10" fill="none" xmlns="http://www.w3.org/2000/svg">
<g clip-path="url(#clip0_89_834)">
<path d="M4.95 3.8085C5.48334 3.8335 5.62084 4.28766 5.62917 4.50016H6.375C6.34167 3.67516 5.75417 3.171 4.9375 3.171C4.01667 3.171 3.33334 3.75016 3.33334 5.0585C3.33334 5.86683 3.72084 6.82516 4.93334 6.82516C5.85834 6.82516 6.35417 6.13766 6.36667 5.596H5.62084C5.60834 5.84183 5.43334 6.171 4.94167 6.196C4.39584 6.17933 4.16667 5.75433 4.16667 5.0585C4.16667 3.85433 4.7 3.81683 4.95 3.8085ZM5 0.833496C2.7 0.833496 0.833336 2.70016 0.833336 5.00016C0.833336 7.30016 2.7 9.16683 5 9.16683C7.3 9.16683 9.16667 7.30016 9.16667 5.00016C9.16667 2.70016 7.3 0.833496 5 0.833496ZM5 8.3335C3.1625 8.3335 1.66667 6.83766 1.66667 5.00016C1.66667 3.16266 3.1625 1.66683 5 1.66683C6.8375 1.66683 8.33334 3.16266 8.33334 5.00016C8.33334 6.83766 6.8375 8.3335 5 8.3335Z" fill="#603F26"/>
</g>
<defs>
<clipPath id="clip0_89_834">
<rect width="10" height="10" fill="white"/>
</clipPath>
</defs>
</svg>
