<svg width="32" height="32" viewBox="0 0 32 32" fill="none" xmlns="http://www.w3.org/2000/svg">
<g clip-path="url(#clip0_4_10797)">
<path d="M24 8.00002H21.3333C21.3333 5.05335 18.9467 2.66669 16 2.66669C13.0533 2.66669 10.6667 5.05335 10.6667 8.00002H8.00001C6.53334 8.00002 5.33334 9.20002 5.33334 10.6667V26.6667C5.33334 28.1334 6.53334 29.3334 8.00001 29.3334H24C25.4667 29.3334 26.6667 28.1334 26.6667 26.6667V10.6667C26.6667 9.20002 25.4667 8.00002 24 8.00002ZM13.3333 13.3334C13.3333 14.0667 12.7333 14.6667 12 14.6667C11.2667 14.6667 10.6667 14.0667 10.6667 13.3334V10.6667H13.3333V13.3334ZM16 5.33335C17.4667 5.33335 18.6667 6.53335 18.6667 8.00002H13.3333C13.3333 6.53335 14.5333 5.33335 16 5.33335ZM21.3333 13.3334C21.3333 14.0667 20.7333 14.6667 20 14.6667C19.2667 14.6667 18.6667 14.0667 18.6667 13.3334V10.6667H21.3333V13.3334Z" fill="#FBF9F1"/>
</g>
<defs>
<clipPath id="clip0_4_10797">
<rect width="32" height="32" fill="white"/>
</clipPath>
</defs>
</svg>
