<svg width="33" height="33" viewBox="0 0 33 33" fill="none" xmlns="http://www.w3.org/2000/svg">
<g clip-path="url(#clip0_2001_12)">
<path d="M27.1667 12.0866V5.83325H20.9133L16.5 1.41992L12.0867 5.83325H5.83333V12.0866L1.42 16.4999L5.83333 20.9133V27.1666H12.0867L16.5 31.5799L20.9133 27.1666H27.1667V20.9133L31.58 16.4999L27.1667 12.0866ZM24.5 19.8066V24.4999H19.8067L16.5 27.8066L13.1933 24.4999H8.5V19.8066L5.19333 16.4999L8.5 13.1933V8.49992H13.1933L16.5 5.19325L19.8067 8.49992H24.5V13.1933L27.8067 16.4999L24.5 19.8066ZM16.5 8.49992C12.0867 8.49992 8.5 12.0866 8.5 16.4999C8.5 20.9133 12.0867 24.4999 16.5 24.4999C20.9133 24.4999 24.5 20.9133 24.5 16.4999C24.5 12.0866 20.9133 8.49992 16.5 8.49992ZM16.5 21.8333C13.5533 21.8333 11.1667 19.4466 11.1667 16.4999C11.1667 13.5533 13.5533 11.1666 16.5 11.1666C19.4467 11.1666 21.8333 13.5533 21.8333 16.4999C21.8333 19.4466 19.4467 21.8333 16.5 21.8333Z" fill="#FF9EAA"/>
<path d="M16.5 19.8334C18.341 19.8334 19.8333 18.341 19.8333 16.5001C19.8333 14.6591 18.341 13.1667 16.5 13.1667C14.6591 13.1667 13.1667 14.6591 13.1667 16.5001C13.1667 18.341 14.6591 19.8334 16.5 19.8334Z" fill="#FF9EAA"/>
</g>
<defs>
<clipPath id="clip0_2001_12">
<rect width="32" height="32" fill="white" transform="translate(0.5 0.5)"/>
</clipPath>
</defs>
</svg>
