<svg width="10" height="10" viewBox="0 0 10 10" fill="none" xmlns="http://www.w3.org/2000/svg">
<g clip-path="url(#clip0_228_2015)">
<path d="M4.95016 3.80837C5.4835 3.83337 5.621 4.28754 5.62933 4.50004H6.37516C6.34183 3.67504 5.75433 3.17087 4.93766 3.17087C4.01683 3.17087 3.3335 3.75004 3.3335 5.05837C3.3335 5.86671 3.721 6.82504 4.9335 6.82504C5.8585 6.82504 6.35433 6.13754 6.36683 5.59587H5.621C5.6085 5.84171 5.4335 6.17087 4.94183 6.19587C4.396 6.17921 4.16683 5.75421 4.16683 5.05837C4.16683 3.85421 4.70016 3.81671 4.95016 3.80837ZM5.00016 0.833374C2.70016 0.833374 0.833496 2.70004 0.833496 5.00004C0.833496 7.30004 2.70016 9.16671 5.00016 9.16671C7.30016 9.16671 9.16683 7.30004 9.16683 5.00004C9.16683 2.70004 7.30016 0.833374 5.00016 0.833374ZM5.00016 8.33337C3.16266 8.33337 1.66683 6.83754 1.66683 5.00004C1.66683 3.16254 3.16266 1.66671 5.00016 1.66671C6.83766 1.66671 8.3335 3.16254 8.3335 5.00004C8.3335 6.83754 6.83766 8.33337 5.00016 8.33337Z" fill="#603F26"/>
</g>
<defs>
<clipPath id="clip0_228_2015">
<rect width="10" height="10" fill="white"/>
</clipPath>
</defs>
</svg>
