<svg width="32" height="32" viewBox="0 0 32 32" fill="none" xmlns="http://www.w3.org/2000/svg">
<g clip-path="url(#clip0_228_1861)">
<path d="M23.9997 8.00002H21.333C21.333 5.05335 18.9463 2.66669 15.9997 2.66669C13.053 2.66669 10.6663 5.05335 10.6663 8.00002H7.99967C6.53301 8.00002 5.33301 9.20002 5.33301 10.6667V26.6667C5.33301 28.1334 6.53301 29.3334 7.99967 29.3334H23.9997C25.4663 29.3334 26.6663 28.1334 26.6663 26.6667V10.6667C26.6663 9.20002 25.4663 8.00002 23.9997 8.00002ZM13.333 13.3334C13.333 14.0667 12.733 14.6667 11.9997 14.6667C11.2663 14.6667 10.6663 14.0667 10.6663 13.3334V10.6667H13.333V13.3334ZM15.9997 5.33335C17.4663 5.33335 18.6663 6.53335 18.6663 8.00002H13.333C13.333 6.53335 14.533 5.33335 15.9997 5.33335ZM21.333 13.3334C21.333 14.0667 20.733 14.6667 19.9997 14.6667C19.2663 14.6667 18.6663 14.0667 18.6663 13.3334V10.6667H21.333V13.3334Z" fill="#FBF9F1"/>
</g>
<defs>
<clipPath id="clip0_228_1861">
<rect width="32" height="32" fill="white"/>
</clipPath>
</defs>
</svg>
