<svg width="10" height="10" viewBox="0 0 10 10" fill="none" xmlns="http://www.w3.org/2000/svg">
<g clip-path="url(#clip0_121_2152)">
<path d="M4.95004 3.80837C5.48337 3.83337 5.62087 4.28754 5.62921 4.50004H6.37504C6.34171 3.67504 5.75421 3.17087 4.93754 3.17087C4.01671 3.17087 3.33337 3.75004 3.33337 5.05837C3.33337 5.86671 3.72087 6.82504 4.93337 6.82504C5.85837 6.82504 6.35421 6.13754 6.36671 5.59587H5.62087C5.60837 5.84171 5.43337 6.17087 4.94171 6.19587C4.39587 6.17921 4.16671 5.75421 4.16671 5.05837C4.16671 3.85421 4.70004 3.81671 4.95004 3.80837ZM5.00004 0.833374C2.70004 0.833374 0.833374 2.70004 0.833374 5.00004C0.833374 7.30004 2.70004 9.16671 5.00004 9.16671C7.30004 9.16671 9.16671 7.30004 9.16671 5.00004C9.16671 2.70004 7.30004 0.833374 5.00004 0.833374ZM5.00004 8.33337C3.16254 8.33337 1.66671 6.83754 1.66671 5.00004C1.66671 3.16254 3.16254 1.66671 5.00004 1.66671C6.83754 1.66671 8.33337 3.16254 8.33337 5.00004C8.33337 6.83754 6.83754 8.33337 5.00004 8.33337Z" fill="#603F26"/>
</g>
<defs>
<clipPath id="clip0_121_2152">
<rect width="10" height="10" fill="white"/>
</clipPath>
</defs>
</svg>
