<svg width="10" height="10" viewBox="0 0 10 10" fill="none" xmlns="http://www.w3.org/2000/svg">
<g clip-path="url(#clip0_168_1933)">
<path d="M4.95016 3.80831C5.4835 3.83331 5.621 4.28748 5.62933 4.49998H6.37516C6.34183 3.67498 5.75433 3.17081 4.93766 3.17081C4.01683 3.17081 3.3335 3.74998 3.3335 5.05831C3.3335 5.86665 3.721 6.82498 4.9335 6.82498C5.8585 6.82498 6.35433 6.13748 6.36683 5.59581H5.621C5.6085 5.84165 5.4335 6.17081 4.94183 6.19581C4.396 6.17915 4.16683 5.75415 4.16683 5.05831C4.16683 3.85415 4.70016 3.81665 4.95016 3.80831ZM5.00016 0.833313C2.70016 0.833313 0.833496 2.69998 0.833496 4.99998C0.833496 7.29998 2.70016 9.16665 5.00016 9.16665C7.30016 9.16665 9.16683 7.29998 9.16683 4.99998C9.16683 2.69998 7.30016 0.833313 5.00016 0.833313ZM5.00016 8.33331C3.16266 8.33331 1.66683 6.83748 1.66683 4.99998C1.66683 3.16248 3.16266 1.66665 5.00016 1.66665C6.83766 1.66665 8.3335 3.16248 8.3335 4.99998C8.3335 6.83748 6.83766 8.33331 5.00016 8.33331Z" fill="#603F26"/>
</g>
<defs>
<clipPath id="clip0_168_1933">
<rect width="10" height="10" fill="white"/>
</clipPath>
</defs>
</svg>
